<svg width="248" height="169" viewBox="0 0 248 169" fill="none" xmlns="http://www.w3.org/2000/svg">
<path d="M207.237 70.336C207.92 69.9093 208.816 69.2693 209.925 68.416C211.034 67.5627 212.229 66.752 213.509 65.984C214.789 65.1306 216.026 64.4053 217.221 63.808C218.416 63.2107 219.397 62.912 220.165 62.912C220.762 62.912 221.53 63.04 222.469 63.296C223.408 63.4666 224.304 63.7653 225.157 64.192C226.096 64.6187 226.864 65.1306 227.461 65.728C228.144 66.24 228.485 66.88 228.485 67.648C228.485 67.904 228.272 68.2453 227.845 68.672C224.261 71.8293 220.848 75.0293 217.605 78.272C214.362 81.4293 211.29 84.8853 208.389 88.64C207.621 89.7493 206.853 90.8587 206.085 91.968C205.317 92.992 204.592 94.1013 203.909 95.296C203.824 95.552 203.653 95.8933 203.397 96.32C203.141 96.7467 202.885 97.216 202.629 97.728C202.373 98.24 202.117 98.7093 201.861 99.136C201.69 99.4773 201.52 99.7333 201.349 99.904C200.752 100.331 200.154 100.629 199.557 100.8C198.96 100.885 198.32 100.928 197.637 100.928C196.698 100.928 195.546 100.8 194.181 100.544C192.816 100.203 191.493 99.7333 190.213 99.136C188.933 98.5387 187.824 97.7707 186.885 96.832C186.032 95.8933 185.605 94.8267 185.605 93.632C185.605 92.4373 185.776 91.2 186.117 89.92C186.458 88.5546 186.842 87.2747 187.269 86.08C183.514 89.664 179.674 92.992 175.749 96.064C171.909 99.136 167.941 101.909 163.845 104.384C159.664 106.944 155.312 109.163 150.789 111.04C146.266 113.003 141.445 114.667 136.325 116.032L133.765 114.368C137.776 111.893 141.616 109.163 145.285 106.176C148.954 103.275 152.496 100.203 155.909 96.96C159.493 93.5466 162.992 90.048 166.405 86.464C167.514 85.2693 169.093 83.5627 171.141 81.344C173.189 79.04 175.365 76.736 177.669 74.432C179.973 72.0427 182.192 69.9093 184.325 68.032C186.458 66.0693 188.122 64.832 189.317 64.32C190 64.064 190.682 63.8506 191.365 63.68C192.048 63.5093 192.773 63.424 193.541 63.424C194.736 63.424 196.016 63.5947 197.381 63.936C198.746 64.192 200.069 64.6187 201.349 65.216C202.629 65.728 203.781 66.4106 204.805 67.264C205.914 68.1173 206.725 69.1413 207.237 70.336Z" fill="black"/>
<path d="M187.781 30.912C190.085 27.1574 192.73 23.5734 195.717 20.16C198.789 16.6614 202.117 13.5894 205.701 10.944C209.285 8.21335 213.125 5.95202 217.221 4.16002C221.317 2.36802 225.669 1.25869 230.277 0.83202C230.874 0.83202 231.685 0.789354 232.709 0.704021C233.733 0.618689 234.757 0.576023 235.781 0.576023C236.89 0.490691 237.914 0.490691 238.853 0.576023C239.877 0.576023 240.645 0.704021 241.157 0.960018C241.669 1.21602 242.309 1.64269 243.077 2.24002C243.845 2.83736 244.57 3.52002 245.253 4.28802C245.936 4.97069 246.448 5.69602 246.789 6.46402C247.13 7.23202 247.173 7.95736 246.917 8.64002C246.746 8.89602 246.362 9.10936 245.765 9.28003C241.328 10.7307 236.848 12.096 232.325 13.376C227.888 14.5707 223.493 16.064 219.141 17.856C214.021 19.9894 209.114 22.464 204.421 25.28C199.813 28.096 195.077 30.6987 190.213 33.088L187.781 30.912Z" fill="black"/>
<path d="M130.847 66.368C130.847 65.856 131.06 65.472 131.487 65.216C131.999 64.8746 132.554 64.6186 133.151 64.448C133.834 64.2773 134.516 64.1493 135.199 64.064C135.882 63.9786 136.394 63.8933 136.735 63.808C137.588 63.552 138.356 63.2533 139.039 62.912C139.722 62.4853 140.49 62.272 141.343 62.272C141.94 62.272 142.708 62.4 143.647 62.656C144.586 62.8266 145.482 63.1253 146.335 63.552C147.274 63.8933 148.042 64.3626 148.639 64.96C149.322 65.5573 149.663 66.1973 149.663 66.88C149.663 67.2213 149.45 67.6053 149.023 68.032C148.596 68.3733 148.084 68.7146 147.487 69.056C146.975 69.312 146.42 69.568 145.823 69.824C145.311 70.08 144.927 70.2933 144.671 70.464C146.036 72.1706 147.018 74.0906 147.615 76.224C148.212 78.272 148.511 80.4053 148.511 82.624C148.511 85.0986 147.914 87.3173 146.719 89.28C145.61 91.1573 144.159 92.7786 142.367 94.144C140.575 95.5093 138.527 96.5333 136.223 97.216C134.004 97.8986 131.786 98.24 129.567 98.24C126.666 98.24 123.807 97.9413 120.991 97.344C118.26 96.7466 115.53 96.064 112.799 95.296C108.703 99.136 104.351 103.061 99.743 107.072C95.135 111.168 90.3137 114.923 85.279 118.336C80.2443 121.835 75.039 124.864 69.663 127.424C64.2017 130.069 58.6123 131.861 52.895 132.8L50.463 131.136C53.9617 129.173 57.2043 126.869 60.191 124.224C63.0923 121.579 65.9937 118.891 68.895 116.16C75.7217 109.845 82.4203 103.531 88.991 97.216L95.903 90.304C96.5003 89.7066 97.055 89.1093 97.567 88.512C98.1643 87.8293 98.8043 87.2746 99.487 86.848C100.767 86.1653 102.346 85.824 104.223 85.824C105.759 85.824 107.21 85.9946 108.575 86.336C110.026 86.6773 111.476 87.0613 112.927 87.488C114.378 87.8293 115.786 88.1706 117.151 88.512C118.602 88.8533 120.095 89.024 121.631 89.024C123.85 89.024 125.983 88.2986 128.031 86.848C130.164 85.312 131.7 83.52 132.639 81.472C133.066 80.5333 133.364 79.552 133.535 78.528C133.706 77.504 133.791 76.48 133.791 75.456C133.791 74.3466 133.62 73.3226 133.279 72.384C133.023 71.36 132.682 70.464 132.255 69.696C131.914 68.928 131.572 68.288 131.231 67.776C130.975 67.1786 130.847 66.7093 130.847 66.368ZM55.327 145.088C59.5937 143.296 63.7323 141.333 67.743 139.2C71.7537 137.067 75.679 134.677 79.519 132.032C81.2257 130.923 83.231 129.515 85.535 127.808C87.7537 126.187 90.0577 124.565 92.447 122.944C94.8363 121.323 97.1404 119.787 99.359 118.336C101.663 116.971 103.711 115.947 105.503 115.264C106.1 115.008 106.57 114.88 106.911 114.88C107.338 114.965 107.85 115.136 108.447 115.392C108.959 115.648 109.599 116.032 110.367 116.544C111.22 117.141 111.946 117.781 112.543 118.464C113.226 119.232 113.738 120 114.079 120.768C114.42 121.536 114.463 122.261 114.207 122.944C114.207 123.029 114.164 123.072 114.079 123.072C113.994 123.157 113.908 123.285 113.823 123.456C111.69 125.845 109.428 128.064 107.039 130.112C104.735 132.245 102.218 134.165 99.487 135.872C97.7803 136.981 96.031 137.963 94.239 138.816C92.447 139.755 90.6124 140.651 88.735 141.504C83.615 143.808 78.5377 145.472 73.503 146.496C68.383 147.605 63.007 147.989 57.375 147.648L55.327 145.088ZM59.935 166.208C64.2017 164.331 68.3403 162.325 72.351 160.192C76.3617 158.059 80.287 155.712 84.127 153.152C85.8337 152.043 87.7963 150.635 90.015 148.928C92.319 147.307 94.623 145.685 96.927 144.064C99.3163 142.443 101.663 140.907 103.967 139.456C106.271 138.091 108.319 137.067 110.111 136.384C110.708 136.128 111.178 136 111.519 136C111.946 136.085 112.458 136.256 113.055 136.512C113.567 136.768 114.207 137.152 114.975 137.664C115.743 138.261 116.468 138.901 117.151 139.584C117.834 140.352 118.346 141.12 118.687 141.888C119.028 142.656 119.071 143.381 118.815 144.064L118.431 144.448C116.212 146.837 113.951 149.099 111.647 151.232C109.343 153.365 106.826 155.285 104.095 156.992C102.388 158.101 100.639 159.083 98.847 159.936C97.055 160.789 95.2204 161.685 93.343 162.624C88.223 164.928 83.1457 166.592 78.111 167.616C72.991 168.725 67.615 169.067 61.983 168.64L59.935 166.208Z" fill="black"/>
<path d="M47.416 76.352C47.416 75.4133 48.44 74.3467 50.488 73.152C52.536 71.872 54.8826 70.6347 57.528 69.44C60.2586 68.16 62.8613 67.008 65.336 65.984C67.896 64.96 69.6453 64.192 70.584 63.68C71.096 63.3386 71.48 63.1253 71.736 63.04C72.0773 62.9546 72.504 62.912 73.016 62.912C73.6133 62.912 74.3813 63.04 75.32 63.296C76.2586 63.4666 77.1546 63.7653 78.008 64.192C78.9466 64.6187 79.7146 65.1306 80.312 65.728C80.9946 66.24 81.336 66.88 81.336 67.648C81.336 68.16 80.696 68.8426 79.416 69.696C78.2213 70.5493 76.8133 71.4453 75.192 72.384C73.656 73.3227 72.12 74.2186 70.584 75.072C69.1333 75.84 68.152 76.352 67.64 76.608C67.896 76.608 68.152 76.6507 68.408 76.736C68.664 76.736 68.92 76.736 69.176 76.736C69.8586 76.736 70.4986 76.736 71.096 76.736C71.7786 76.6507 72.4613 76.6933 73.144 76.864C73.8266 76.9493 74.68 77.2053 75.704 77.632C76.728 77.9733 77.7093 78.4427 78.648 79.04C79.672 79.552 80.5253 80.192 81.208 80.96C81.976 81.6427 82.36 82.4107 82.36 83.264C82.36 83.8613 81.8053 84.6293 80.696 85.568C79.5866 86.4213 78.3066 87.36 76.856 88.384C75.4053 89.3227 73.9546 90.176 72.504 90.944C71.1386 91.712 70.2 92.2667 69.688 92.608C70.3706 92.864 71.1386 93.2053 71.992 93.632C72.8453 93.9733 73.656 94.4427 74.424 95.04C75.2773 95.552 75.96 96.192 76.472 96.96C77.0693 97.6427 77.368 98.368 77.368 99.136C77.368 99.648 77.112 100.288 76.6 101.056C76.1733 101.739 75.6186 102.464 74.936 103.232C74.2533 103.915 73.5706 104.555 72.888 105.152C72.2053 105.835 71.6506 106.347 71.224 106.688C67.5546 109.931 63.3306 113.003 58.552 115.904C53.8586 118.891 48.8666 121.493 43.576 123.712C38.3706 126.016 33.0373 127.851 27.576 129.216C22.2 130.581 17.0373 131.264 12.088 131.264C8.50396 131.264 4.91996 131.008 1.33596 130.496L0.18396 128.704C4.70663 128.533 9.22929 127.723 13.752 126.272C18.2746 124.821 22.712 122.987 27.064 120.768C31.416 118.635 35.5973 116.203 39.608 113.472C43.704 110.741 47.4586 108.011 50.872 105.28C50.0186 105.195 48.9093 104.981 47.544 104.64C46.1786 104.384 44.8133 103.957 43.448 103.36C42.168 102.763 41.016 102.08 39.992 101.312C39.0533 100.459 38.584 99.4773 38.584 98.368C38.584 97.5146 39.48 96.32 41.272 94.784C43.1493 93.1626 45.2826 91.5413 47.672 89.92C50.0613 88.2986 52.3653 86.8053 54.584 85.44C56.888 84.0747 58.4666 83.136 59.32 82.624C58.6373 82.5387 57.9546 82.496 57.272 82.496C56.5893 82.4107 55.9066 82.2826 55.224 82.112C54.6266 81.9413 53.8586 81.728 52.92 81.472C52.0666 81.1307 51.2133 80.704 50.36 80.192C49.592 79.68 48.9093 79.1253 48.312 78.528C47.7146 77.8453 47.416 77.12 47.416 76.352Z" fill="black"/>
<path d="M83.512 9.79199C80.7813 9.96266 78.3067 10.6027 76.088 11.712C73.9547 12.8213 71.7787 14.144 69.56 15.68C69.1333 16.0213 68.7493 16.2773 68.408 16.448C68.0667 16.5333 67.64 16.576 67.128 16.576C66.5307 16.576 65.7627 16.4907 64.824 16.32C63.8853 16.1493 62.9467 15.8933 62.008 15.552C61.0693 15.2107 60.2587 14.784 59.576 14.272C58.8933 13.6747 58.552 12.992 58.552 12.224C58.552 11.8827 58.7653 11.456 59.192 10.944C59.704 10.3467 60.0453 9.87732 60.216 9.53599C62.264 6.80532 64.8667 4.84265 68.024 3.64799C71.1813 2.36799 74.424 1.64266 77.752 1.47199C80.056 1.38665 82.5307 1.68532 85.176 2.36799C87.9067 2.96532 90.424 3.94665 92.728 5.31199C95.032 6.59199 96.952 8.25599 98.488 10.304C100.109 12.352 100.963 14.7413 101.048 17.472C101.219 20.3733 100.621 23.1467 99.256 25.792C97.8907 28.4373 96.0987 30.784 93.88 32.832C91.6613 34.7947 89.144 36.416 86.328 37.696C83.512 38.8907 80.7387 39.5307 78.008 39.616C75.8747 39.7013 73.6133 39.488 71.224 38.976C68.8347 38.3787 66.616 37.4827 64.568 36.288C62.52 35.0933 60.7707 33.5573 59.32 31.68C57.9547 29.8027 57.2293 27.6267 57.144 25.152C56.9733 21.9947 57.528 19.136 58.808 16.576C60.1733 13.9307 62.0933 11.6267 64.568 9.66399L67.64 10.688C67.2133 12.1387 66.9147 13.5467 66.744 14.912C66.6587 16.2773 66.616 17.6853 66.616 19.136C66.7867 21.3547 67.2133 23.5307 67.896 25.664C68.664 27.7973 69.7307 29.7173 71.096 31.424C72.7173 30.912 74.3387 30.0587 75.96 28.864C77.5813 27.6693 79.032 26.304 80.312 24.768C81.592 23.232 82.616 21.6107 83.384 19.904C84.2373 18.112 84.6213 16.32 84.536 14.528C84.4507 13.5893 84.3227 12.6507 84.152 11.712C83.9813 10.7733 83.5547 9.96265 82.872 9.27999C83.2133 9.45066 83.5547 9.57866 83.896 9.66399C84.2373 9.74932 84.5787 9.83465 84.92 9.91999C84.664 9.83465 84.1947 9.79199 83.512 9.79199Z" fill="black"/>
</svg>
